<svg width="545" height="151" viewBox="0 0 545 151" fill="none" xmlns="http://www.w3.org/2000/svg">
<path d="M526.139 88.52L526.225 88.4071L544.94 64.4227H509.296C508.44 64.4227 507.557 64.4836 506.654 64.6048H480.635L475.594 71.0352C475.555 70.6968 475.488 70.367 475.402 70.0465C475.094 68.9 474.523 67.9152 473.761 67.1125C472.964 66.2723 471.956 65.6462 470.795 65.2285C469.673 64.8283 468.399 64.6048 466.985 64.6063C466.969 64.604 466.95 64.6063 466.934 64.6063C447.855 64.6032 428.769 64.4227 409.683 64.4227C409.628 64.4219 409.593 64.4227 409.589 64.4227C406.338 64.4191 402.758 65.1812 399.14 66.8069C397.385 67.5888 395.654 68.5146 393.958 69.5627L396.361 64.5446H376.597C375.625 64.559 374.786 64.688 373.948 64.8119C371.93 65.1347 370.056 65.8326 368.323 66.5939C366.153 67.5564 364.063 68.7765 361.919 70.1911C360.365 71.2197 358.847 72.3721 357.32 73.6434C357.316 73.6109 357.314 73.5781 357.309 73.5453C357.071 71.4718 356.278 69.6702 354.953 68.2806C353.7 66.9597 352.035 66.0116 350.088 65.4266C348.293 64.8846 346.32 64.6032 344.204 64.6032C327.014 64.6036 309.834 64.4227 292.64 64.4227L283.601 70.5378L285.294 64.3621H258.636C257.308 64.4547 255.995 64.4406 254.72 64.5606C252.016 64.815 249.415 65.3418 246.735 66.4305C243.876 67.5818 241.046 69.2181 238.448 71.2338L238.302 71.3494C238.265 70.9012 238.193 70.4659 238.08 70.0465C237.764 68.9039 237.202 67.9175 236.433 67.1074C235.642 66.2754 234.635 65.6462 233.466 65.2285C232.375 64.8392 231.137 64.6145 229.765 64.6048C229.754 64.6048 229.734 64.6048 229.703 64.6032C229.656 64.6009 229.58 64.6005 229.465 64.6063L211.689 64.6052C211.253 64.6052 210.877 64.4719 210.45 64.4703L188.378 64.3644C188.061 64.359 187.754 64.359 187.481 64.359C184.047 64.3605 180.917 64.5809 177.929 65.1273C174.674 65.7275 171.384 66.7682 168.141 68.3993C165.026 69.9649 162.035 71.9997 159.257 74.3542C156.835 76.4129 154.29 78.7874 151.562 81.5076L151.415 81.6542L151.099 81.9657L150.689 82.4702C150.082 83.2119 149.621 83.9337 149.262 84.6621C149.256 84.6621 149.191 84.804 149.188 84.8102C148.461 86.3902 148.124 88.0397 148.855 89.6892C149.236 90.5107 149.926 91.0324 150.541 91.3384L125.735 122.883H158.361C160.717 122.88 162.866 122.785 164.882 122.566C165.298 122.521 165.711 122.47 166.118 122.415L165.755 122.883H193.042L200.743 113.005L211.092 113.118L203.464 122.883H232.025L237.418 122.881L244.579 118.248L243.39 122.881H269.4L276.489 96.6465L308.544 74.8134L271.025 122.883H298.017L306.233 112.357L304.77 122.883H329.864L329.865 122.881H333.942L343.921 113.36H347.145L342.591 122.881H366.827C367.481 123.062 368.172 123.19 368.887 123.267C372.409 123.673 376.061 123.883 379.81 123.883C384.555 123.883 389.444 123.536 394.458 122.881H430.364L438.551 112.383L435.655 122.881H462.139L463.339 121.335C464.722 122.436 466.547 123.049 468.567 123.267C471.033 123.563 473.573 123.758 476.168 123.847C478.267 123.92 480.369 123.922 482.464 123.86C486.356 123.744 490.241 123.405 494.098 122.881H501.206L528.272 89.0104L525.857 88.953L526.139 88.52ZM173.461 101.72L173.462 101.719L173.461 101.72ZM406.6 98.6716C401.144 99.4617 397.588 99.0932 394.829 98.96C395.759 97.6324 396.744 96.3202 397.787 95.0173C399.573 92.7874 401.492 90.6498 403.548 88.5896H414.509L406.6 98.6716Z" fill="#ED1C24"/>
<path d="M502.531 85.1916C502.66 85.0701 502.73 85.0134 502.98 84.8837C503.117 84.8251 503.098 84.827 503.113 84.8286C503.121 84.8286 503.137 84.8286 503.176 84.8251L525.166 84.827L538.152 68.184H507.283C505.716 68.184 504.059 68.44 502.347 68.9312C501.39 69.2067 500.432 69.5405 499.475 69.9289L500.686 68.3653H481.51L468.481 84.9849L471.174 75.5797L471.186 75.5305C471.334 74.951 471.416 74.3573 471.416 73.7876C471.416 73.3217 471.362 72.8727 471.244 72.4499C471.018 71.603 470.592 70.8594 470.013 70.2454C469.415 69.6151 468.653 69.1461 467.782 68.8323C466.93 68.5283 465.984 68.3673 464.968 68.3673C464.968 68.3673 464.968 68.3673 464.96 68.3653C464.956 68.3653 464.945 68.3646 464.917 68.3673L453.499 68.3653C438.097 68.3653 423.263 68.184 407.573 68.184C404.896 68.184 402.078 68.803 399.288 70.0547C396.654 71.2314 394.075 72.7926 391.589 74.6895C389.256 76.4707 387.029 78.4712 384.907 80.6772L390.827 68.3044H374.638C373.99 68.3138 373.409 68.3978 372.557 68.5248C371.238 68.7354 369.907 69.2141 368.418 69.866C366.777 70.5936 365.045 71.5886 363.141 72.8473C361.06 74.2241 358.884 75.9955 356.51 78.1801L350.882 83.4022C351.197 82.823 351.495 82.2404 351.774 81.6565C352.647 79.8405 353.139 78.0796 353.141 76.4707C353.139 76.1831 353.122 75.9041 353.092 75.6329C352.903 73.9767 352.269 72.5343 351.207 71.4202C350.179 70.3353 348.813 69.5545 347.197 69.0688C345.648 68.6018 343.97 68.3653 342.188 68.3653L317.397 68.3673L277.784 119.119H297.104L307.074 106.341H311.047L309.271 119.119H327.842V119.117H333.667L343.647 109.597H352.649L348.091 119.117H366.51L367.082 117.925C368.142 118.83 369.584 119.341 371.25 119.523C374.666 119.918 378.186 120.118 381.796 120.118C386.443 120.118 391.242 119.772 396.181 119.117H429.449L446.566 97.1615L440.509 119.117H461.217L464.831 114.468C465.015 115.338 465.336 116.143 465.808 116.857C466.84 118.439 468.692 119.28 470.928 119.523C474.339 119.931 477.86 120.142 481.475 120.142C486.11 120.142 490.893 119.798 495.813 119.117H500.343L521.394 92.773H501.636L493.347 103.032C492.582 103.043 491.816 103.059 491.042 103.081C490.827 103.082 490.6 103.09 490.409 103.09C489.631 103.088 488.889 103.046 488.173 102.962C489.987 99.9112 492.062 96.9243 494.414 93.9914C496.833 90.9734 499.479 88.0972 502.359 85.3569C502.414 85.3022 502.472 85.2471 502.531 85.1916ZM332.168 83.0384C332.133 83.2814 332.072 83.4577 332.009 83.5882C331.494 84.6601 330.853 85.6168 330.048 86.5309C329.213 87.475 328.288 88.3086 327.208 89.0819C326.622 89.5071 326.078 89.901 325.552 90.2836C325.366 90.42 325.128 90.563 324.778 90.7186C324.532 90.8288 324.095 90.9785 323.507 91.0902C323.004 91.191 322.208 91.268 321.223 91.268H318.828L325.786 82.3529L332.035 82.3549C332.054 82.3549 332.068 82.3564 332.078 82.3572C332.115 82.3959 332.112 82.392 332.149 82.4897C332.169 82.5639 332.181 82.6589 332.184 82.78C332.184 82.8516 332.176 82.9375 332.168 83.0384ZM359.584 95.6058H358.206L360.766 93.1372L359.584 95.6058ZM407.854 101.948L407.299 102.048C403.884 102.656 400.589 102.971 397.408 102.991C397.373 102.989 397.326 102.989 397.279 102.989C397.186 102.989 397.092 102.991 397.018 102.991C394.2 102.989 391.464 102.803 388.811 102.433C390.546 99.5653 392.52 96.7528 394.735 93.9914C397.182 90.9382 399.859 88.0303 402.778 85.2612L402.848 85.1951C402.981 85.0716 403.051 85.0134 403.301 84.8837C403.34 84.868 403.364 84.8548 403.38 84.8466C403.399 84.8387 403.423 84.8282 403.442 84.827C403.462 84.8251 403.485 84.8258 403.497 84.8251L421.286 84.827L407.854 101.948ZM292.229 68.1856L277.697 78.0136L280.415 68.1254H261.483L261.419 68.3653H253.177C253.174 68.3653 253.171 68.3653 253.167 68.3653C251.133 68.3653 248.921 68.8585 246.656 69.7765C244.395 70.6866 242.197 71.9606 240.164 73.5371L232.776 79.3403L233.844 75.5961L233.855 75.5528C234.011 74.9478 234.09 74.3558 234.09 73.7876C234.09 73.3217 234.037 72.8712 233.924 72.4499C233.691 71.6054 233.27 70.8574 232.684 70.2435C232.091 69.6167 231.333 69.1438 230.456 68.8308C229.6 68.5263 228.654 68.3673 227.639 68.3673C227.636 68.3693 227.636 68.3673 227.629 68.3673C227.623 68.3653 227.61 68.3634 227.585 68.3673L212.054 68.3653L209.412 71.7558C209.194 71.3096 208.921 70.8942 208.596 70.5182C207.024 68.6158 202.787 68.2047 200.545 68.1946L186.29 68.1254C186.023 68.1195 185.737 68.1219 185.464 68.1219C182.199 68.1219 179.303 68.3372 176.699 68.8144C173.873 69.3345 171.154 70.2142 168.579 71.51C166.058 72.7778 163.599 74.4417 161.248 76.434C159.039 78.3082 156.639 80.5424 154.025 83.1521L153.857 83.3186L153.677 83.5347C153.378 83.8993 153.15 84.2678 152.995 84.5976C152.776 85.0248 152.644 85.5359 152.644 86.0291C152.644 86.3386 152.693 86.6481 152.839 86.9314C153.151 87.5755 153.723 87.8525 154.122 87.9752C154.386 88.0522 154.677 88.1054 155.039 88.1054H155.114C155.909 88.0971 156.757 87.79 157.473 87.391L132.522 119.119H160.345C162.598 119.117 164.61 119.024 166.421 118.825C168.2 118.632 169.789 118.362 171.258 117.966C172.235 117.694 173.207 117.366 174.169 116.985L172.507 119.119H192.123L209.024 97.4417L205.599 109.353H212.506L213.807 108.355L225.861 99.1022L210.224 119.119H230.003V119.117H237.877L250.245 111.113L248.191 119.117H266.562L272.929 95.5577L313.122 68.1856H292.229ZM173.406 101.852C173.077 102.26 172.625 102.707 171.974 103.211C171.262 103.755 170.56 104.193 169.825 104.549C169.539 104.672 169.259 104.78 168.991 104.867C168.749 104.948 168.493 105.013 168.217 105.063C167.939 105.115 167.556 105.162 167.091 105.195C166.622 105.23 166.045 105.251 165.378 105.251H162.974L166.536 100.676H171.34C171.39 100.675 171.428 100.675 171.464 100.675C172.683 100.671 173.55 100.762 173.741 100.819C173.891 100.856 173.992 100.894 174.072 100.936C173.885 101.26 173.641 101.559 173.406 101.852ZM187.974 83.2322C187.496 83.8086 186.935 84.3123 186.344 84.77C185.611 85.3307 184.888 85.7762 184.132 86.1389C183.514 86.4304 183.032 86.5801 182.648 86.6481C182.239 86.727 181.246 86.8079 179.945 86.8056C179.893 86.8056 179.841 86.8079 179.789 86.8079H177.424L180.727 82.5929L188.42 82.5944C188.347 82.7191 188.198 82.9454 187.974 83.2322ZM254.9 93.4326L244.59 100.407L257.354 83.997L254.9 93.4326Z" fill="#231F20"/>
<path d="M163.746 77.6282C162.216 75.5039 160.94 73.4647 159.029 71.9766C157.668 70.9152 156.054 70.0227 154.44 69.3435C151.522 68.0078 148.89 67.3289 145.981 67.2645C145.989 67.1265 145.991 66.9862 145.987 66.8451C146.216 66.1925 146.294 65.4496 146.19 64.6919C147.815 64.239 148.947 62.541 149.095 61.2357C150.54 61.7449 152.197 61.9157 153.727 62.0853C153.738 61.5194 153.678 60.9665 153.558 60.417L153.972 60.4624C154.015 58.3376 153.037 56.3837 151.721 54.1745C151.083 53.0268 150.276 51.8798 149.341 50.6902C147.344 50.1373 143.095 50.2655 140.8 50.4777C140.59 50.4542 140.948 51.2967 141.269 52.0428C141.077 52.0568 140.892 52.0713 140.719 52.0862C139.352 50.4464 138.99 49.657 138.421 49.3729C137.912 49.1169 136.892 49.3311 135.023 49.7555L135.045 49.5878C135.237 48.4874 135.477 47.4506 135.754 46.7038C138.006 40.6282 137.793 42.4141 139.025 40.0756C139.619 40.0756 140.512 40.8412 140.98 40.8412C142.595 40.2874 143.147 40.2456 144.168 38.0357C144.655 36.9356 144.989 35.7976 145.015 34.7311C145.173 34.134 145.263 33.5419 145.263 32.9722C143.988 31.3144 141.906 30.2961 138.888 29.7005C138.464 28.3831 137.317 26.1306 136.595 24.9844C134.852 22.0519 132.642 19.715 129.753 18.0147C127.629 16.7411 124.272 15.2108 121.595 14.659C114.542 13.129 110.549 13.8942 105.96 15.5933C99.6292 16.0619 95.2094 16.6985 89.856 18.2706C87.1357 19.0358 84.2899 20.0128 81.0624 21.2016C80.042 21.1598 78.5133 20.9472 76.8543 20.6502C74.306 20.2238 71.5423 19.5872 69.8014 18.8236C69.7674 17.8025 67.6907 14.4682 65.6644 12.4807C68.0373 11.9691 72.2708 11.4146 74.9094 13.0106C76.0993 13.6898 77.4171 14.2009 78.5637 14.9649C79.9221 15.8137 81.9624 17.7263 83.2356 17.4289C83.651 17.1045 83.7377 16.4292 83.6373 15.6508C84.3603 14.725 83.5619 12.2399 82.803 10.9202C81.3574 8.37072 80.2112 7.22455 78.7657 6.16042C77.0243 4.84346 74.9844 3.73947 72.7757 3.01612C70.6419 2.30684 68.3042 2.00749 65.9208 2.20093C65.9529 2.00828 65.9868 1.81445 66.0291 1.62373L65.9826 1.62724C66.0974 1.11492 66.1533 0.545922 66.2737 -8.91841e-06C64.1912 0.169985 60.1562 0.255184 56.7997 2.12434C55.5262 2.8477 54.292 3.82545 53.3581 5.18344C47.1968 5.09864 43.373 5.18344 39.5487 8.41333C37.6369 9.98509 36.1078 13.4268 35.9796 15.8919L35.9792 15.9079C35.8448 16.4679 35.7596 17.0103 35.7338 17.5137C35.6064 20.6158 36.5419 23.9731 38.7515 27.5422C41.4264 31.8319 45.8041 34.4247 51.9215 34.9773C55.5758 35.3173 59.2731 35.2735 62.6296 34.7217C67.1764 33.9148 72.5295 32.1726 77.3311 30.6442C83.6197 30.3461 88.378 29.7091 93.6048 28.6035C98.5335 27.4992 103.08 26.1814 107.413 24.61C109.793 24.0149 112.809 24.1423 115.444 24.567C117.526 24.891 119.281 25.5096 120.436 26.3432H117.134L117.123 27.9673H116.887L116.846 34.5525C117.228 35.3173 118.205 34.9351 118.757 35.6573C119.184 36.5069 119.226 42.4141 119.055 44.9616V46.7464C118.183 46.0105 117.227 45.0894 116.412 44.2738C113.732 46.3134 111.32 46.5748 110.487 45.9515C110.85 45.6467 111.409 45.3016 112.257 44.9198C111.901 44.5689 111.544 44.2641 111.185 43.9976C111.518 43.7811 111.948 43.5466 112.501 43.2973C109.613 40.4496 106.554 40.5778 104.599 40.4496C102.434 42.3183 100.309 44.2738 98.3541 46.6964L98.2693 47.5034H98.7883C98.5596 47.7699 98.3322 48.0411 98.1079 48.3189L98.0243 49.1263H104.532C103.393 50.2111 102.949 51.387 103.072 52.4449C102.462 53.9139 102.928 55.3575 104.185 56.3075C104.524 56.6471 104.864 56.8593 105.416 56.9011L105.42 56.9746C105.149 58.0567 104.524 58.8222 103.623 59.2728C103.198 59.4854 102.731 59.6128 102.178 59.7406C101.158 59.9946 99.6292 59.698 97.9293 59.1454C96.9089 58.7636 95.8472 58.2524 94.9984 57.9984C94.9042 58.6049 94.9022 59.1665 94.9741 59.6925C94.8987 59.6671 94.8241 59.6429 94.7514 59.6214C94.6318 60.3967 94.6627 61.0982 94.8057 61.7461C93.9374 60.7117 93.1249 59.7355 92.9995 59.528C91.3429 57.488 89.8141 54.6841 87.902 52.1776C85.9899 49.6269 83.5251 47.4608 81.4008 45.8038C78.3421 43.4243 75.3248 42.2351 71.6279 41.8955C69.674 41.6821 67.2948 41.8091 65.2123 42.0651L65.7219 43.2109C65.2557 43.1702 63.7246 43.1277 63.0872 43.2109L64.2396 44.7877C63.7136 44.7819 63.1634 44.7917 62.8418 44.8346L63.1692 45.2829L34.0253 42.6599L10.061 40.3652L10.4938 42.053L9.81557 41.9881L10.2319 43.6114L0.246862 42.6161C0.359644 43.139 0.642967 43.724 1.06416 44.3454L0 44.2395C0.340261 45.8116 2.20996 47.9359 4.80184 49.9763C5.89437 50.8446 7.02372 51.6578 8.23806 52.2812C8.26202 52.5582 8.31134 52.8748 8.36218 53.0268C8.43619 53.2355 8.54839 53.4449 8.67723 53.6478C8.30903 53.5708 8.07276 53.5067 7.98831 53.4598C7.94618 53.6728 8.03122 54.3945 8.11684 54.6497C8.32857 55.2445 8.83875 55.8393 9.21977 56.3075C10.7078 58.177 12.1948 59.3654 13.5552 60.1306C13.7644 60.2529 13.9801 60.3678 14.2034 60.4737C14.0593 60.6339 14.108 60.8758 14.2675 61.0575C14.5 61.3792 14.7482 61.6867 15.0076 61.9814L14.8296 61.9575C13.8093 61.7887 13.7253 62.3401 14.0219 62.6805C14.5741 63.4445 15.2115 64.1256 15.8916 64.7622C17.1663 66.0374 18.5261 67.141 19.6736 68.0761C20.2249 68.5861 20.9894 68.7561 21.6698 69.0531C21.6866 69.0617 21.7439 69.0801 21.8364 69.1035C21.9461 69.3415 22.0548 69.5604 22.164 69.7655L21.8828 69.7339C21.3302 69.6483 21.4146 70.2857 21.4146 70.3287C22.1368 72.0274 22.8171 72.8352 23.7099 73.8974C25.4634 76.0405 27.4668 77.0053 29.2617 77.3473C29.2199 77.6583 29.2661 77.9733 29.3765 78.2855L29.2757 78.2746C28.4259 79.5908 29.7011 81.1633 30.8899 82.1403C32.5477 83.5851 34.459 84.7742 37.0519 85.7946C39.4717 86.7298 43.1694 87.1956 47.971 87.4515C51.0301 87.6207 54.0036 87.7493 57.0624 87.9189C59.3583 88.0889 61.6518 88.2589 64.1161 88.5141C69.47 89.0233 74.9938 89.6189 80.305 90.3414C84.2696 90.9132 88.0384 91.6408 91.9502 92.3392C91.176 93.3943 89.8685 94.2181 88.072 94.8363C86.0754 95.5155 83.1004 96.1107 79.9975 96.2818C80.1745 96.8114 80.4426 97.3303 80.7501 97.8329C80.4203 97.861 80.087 97.8853 79.7532 97.9036C80.1362 99.051 80.942 100.156 81.665 101.133C81.8885 101.454 82.1406 101.752 82.3965 102.028C81.2812 102.101 80.1386 102.074 78.8095 101.933C77.0677 101.805 75.1552 101.635 73.2001 101.465C73.3462 102.088 73.5889 102.639 73.9254 103.171L72.9554 103.087C73.295 104.532 74.1438 105.595 75.5046 106.913C75.8856 107.252 76.3108 107.549 76.6507 107.974C78.4363 109.929 80.858 111.033 83.4923 111.373C87.1048 111.883 91.0537 111.033 94.157 109.292C96.8761 107.761 99.8078 106.53 102.145 104.703C104.694 104.532 106.946 104.786 108.731 105.807C110.446 106.812 111.795 108.169 112.645 110.468C113.331 112.724 114.392 117.84 111.981 122.848L112.789 123.842C112.697 124.323 112.603 124.813 112.512 125.31C114.976 128.156 117.059 131.683 118.291 135.847C119.311 139.33 119.905 143.58 120.117 149.103C120.117 149.316 121.561 148.678 121.604 148.891C121.732 149.4 121.817 149.91 121.945 150.42C123.771 149.825 123.856 149.996 125.556 149.018C131.377 145.577 132.992 136.612 134.648 130.492C136.816 131.088 136.135 131.215 137.241 131.301C138.175 129.473 139.196 126.966 139.619 124.119C139.649 123.899 139.676 123.677 139.7 123.452C139.762 123.138 139.818 122.82 139.866 122.496C140.104 120.728 140.152 118.824 139.814 116.828C140.442 116.84 141.156 117.202 141.703 117.492C143.182 116.129 143.842 114.012 144.073 111.705C144.225 110.983 144.319 110.226 144.37 109.452C144.625 104.865 143.265 99.595 142.713 97.3854L141.651 94.0719L141.265 93.5299C142.638 93.188 143.946 92.6655 145.228 92.0402C146.8 91.2758 148.798 90.5106 150.031 89.0233C151.688 87.069 154.237 86.6012 155.595 86.0912C156.361 86.7298 156.999 87.4937 157.636 88.3023C159.037 90.1714 158.827 92.932 162.436 94.0805C164.319 92.8816 165.043 90.0562 165.276 87.7825C165.508 86.6473 165.599 85.5245 165.615 84.639C165.657 81.7491 165.19 79.5818 163.746 77.6282Z" fill="#231F20"/>
<path d="M120.279 45.8038C120.704 46.1012 121.129 46.5686 121.299 47.2056C121.554 48.1407 120.83 48.0134 120.32 47.886C120.279 47.2056 120.279 46.483 120.279 45.8038Z" fill="white"/>
<path d="M198.715 52.7966L196.927 52.7954L200.857 39.7375L185.83 58.7308L177.76 58.7253L199.359 31.409L207.538 31.4145C207.977 31.4145 208.382 31.4821 208.753 31.6169C209.125 31.7514 209.431 31.9475 209.67 32.2043C209.91 32.4618 210.073 32.7612 210.16 33.1035C210.248 33.4462 210.232 33.8366 210.113 34.2774L208.237 40.5484L216.701 33.9515C217.718 33.1691 218.788 32.5532 219.911 32.1011C221.033 31.6497 222.07 31.4243 223.019 31.4243L230.358 31.4293L208.796 58.746L200.617 58.7405L215.41 40.0771L198.715 52.7966Z" fill="#231F20"/>
<path d="M276.337 52.9948L270.206 58.7867L261.625 58.7812L285.724 36.6378C287.091 35.3928 288.304 34.4216 289.365 33.7249C290.425 33.0289 291.343 32.5095 292.12 32.1676C292.896 31.826 293.524 31.6181 293.998 31.5446C294.471 31.472 294.793 31.4356 294.964 31.4356L302.85 31.4407L289.411 58.7996L281.853 58.7949L284.698 52.9998L276.337 52.9948ZM287.276 48.0493L292.34 37.7441L281.544 48.0454L287.276 48.0493Z" fill="#231F20"/>
<path d="M353.969 51.5426C354.093 51.9338 354.307 52.1659 354.613 52.239C356.525 52.5586 358.527 52.6458 360.62 52.5C362.713 52.3546 364.871 52.0752 367.096 51.6614L361.828 58.4439C358.898 58.9066 356.174 59.1739 353.655 59.2459C351.136 59.317 348.713 59.1689 346.385 58.8007C344.376 58.5303 343.369 57.5944 343.363 55.9917C343.358 54.3911 344.407 52.196 346.507 49.4096C346.603 49.2627 346.724 49.0915 346.869 48.8961C347.013 48.7007 347.25 48.3889 347.583 47.961C347.914 47.5339 348.371 46.9402 348.95 46.1821C349.529 45.4244 350.323 44.4036 351.33 43.121C352.338 41.8377 353.599 40.2491 355.115 38.3546C356.63 36.4596 358.461 34.1688 360.611 31.4794L368.752 31.4848L356.639 46.7749C356.206 47.4107 355.766 48.0212 355.319 48.6085C354.873 49.1947 354.469 49.8055 354.108 50.4413C353.89 50.7848 353.845 51.151 353.969 51.5426Z" fill="#231F20"/>
<path d="M433.115 52.9526L431.325 52.9514L435.256 39.8935L420.23 58.8863L412.161 58.8812L433.76 31.565L441.939 31.57C442.377 31.5708 442.783 31.638 443.154 31.7729C443.526 31.9077 443.83 32.1039 444.073 32.3598C444.311 32.6174 444.475 32.9171 444.561 33.2598C444.647 33.6022 444.631 33.9926 444.514 34.4334L442.638 40.7044L451.103 34.1082C452.119 33.3251 453.19 32.7092 454.311 32.2574C455.433 31.8061 456.472 31.5806 457.418 31.5806L464.757 31.5849L443.197 58.9019L435.018 58.8965L449.809 40.2331L433.115 52.9526Z" fill="#231F20"/>
<path d="M531 45.8085C528.941 48.5096 526.694 51.1799 524.251 53.8197C522.981 55.1644 521.543 56.2641 519.929 57.1184C518.315 57.9738 516.744 58.5229 515.212 58.7663C513.969 58.9605 512.762 59.1067 511.582 59.2036C510.402 59.3013 509.241 59.349 508.096 59.3482C507.267 59.3478 506.412 59.329 505.528 59.2915C504.649 59.2544 503.809 59.1559 503.008 58.9965C502.211 58.8374 501.503 58.6053 500.886 58.2974C500.268 57.9925 499.811 57.5767 499.51 57.05C499.209 56.5243 499.108 55.8756 499.205 55.105C499.303 54.3347 499.67 53.3992 500.307 52.2991C501.054 51.0294 501.914 49.7148 502.883 48.358C503.856 47.0012 504.872 45.6506 505.935 44.3059C506.998 42.9616 508.072 41.6473 509.167 40.3644C510.261 39.0814 511.312 37.8774 512.328 36.7531C512.871 36.1423 513.587 35.5193 514.47 34.8831C515.353 34.2481 516.431 33.6678 517.702 33.1433C518.968 32.6181 520.449 32.1914 522.145 31.8615C523.841 31.5325 525.771 31.3695 527.94 31.3711C529.011 31.3715 530.16 31.3957 531.391 31.4465C532.618 31.4961 533.72 31.6802 534.697 31.9979C535.674 32.3168 536.428 32.8256 536.964 33.5228C537.495 34.2204 537.597 35.229 537.265 36.5495L536.776 37.5393C534.982 40.3511 533.056 43.1073 531 45.8085ZM522.747 45.4364C524.404 43.3949 525.967 41.3112 527.424 39.1846C527.823 38.6222 527.979 38.1759 527.901 37.8453C527.819 37.5151 527.604 37.2713 527.256 37.1118C526.909 36.952 526.49 36.848 526.002 36.7988C525.513 36.7495 525.091 36.7245 524.724 36.7245C524.31 36.7245 523.849 36.7484 523.337 36.7968C522.825 36.8457 522.305 36.9485 521.777 37.1075C521.25 37.2674 520.734 37.4866 520.23 37.7672C519.73 38.0481 519.276 38.421 518.878 38.8844C517.213 40.7911 515.564 42.7591 513.934 44.7873C512.305 46.8179 510.757 48.8711 509.3 50.9485C508.936 51.4374 508.717 51.8712 508.643 52.2499C508.565 52.6301 508.596 52.9474 508.741 53.2034C508.881 53.4605 509.128 53.6509 509.483 53.7736C509.835 53.8959 510.269 53.933 510.781 53.8849C511.242 53.8849 511.781 53.867 512.395 53.8302C513.008 53.7935 513.626 53.7028 514.247 53.5555C514.868 53.4097 515.458 53.178 516.029 52.8607C516.599 52.5434 517.084 52.1033 517.483 51.5406C519.331 49.512 521.086 47.4779 522.747 45.4364ZM526.287 24.1055L531.762 24.109L527.432 29.5727L521.992 29.5695L526.287 24.1055ZM534.064 24.1106L539.539 24.1145L535.213 29.5778L529.769 29.5742L534.064 24.1106Z" fill="#231F20"/>
<path d="M292.185 71.1125L273.028 84.07L276.604 71.0524H263.709L263.646 71.2939H251.961C250.396 71.2939 248.691 71.6651 246.848 72.4084C245.007 73.1525 243.255 74.1666 241.595 75.4519L227.786 86.3002L230.729 75.9943C230.914 75.2713 230.93 74.6289 230.779 74.0661C230.625 73.5038 230.348 73.011 229.948 72.5897C229.547 72.1673 229.037 71.8468 228.421 71.6253C227.803 71.4049 227.134 71.2939 226.41 71.2939H212.911L204.578 81.9871C205.815 80.2293 206.555 78.6024 206.783 77.1096C207.055 75.3221 206.729 73.8848 205.801 72.8008C205.574 72.5194 205.172 72.2877 204.596 72.1075C204.019 71.9266 203.328 71.7757 202.522 71.6561C201.715 71.535 200.835 71.4447 199.88 71.3838C198.923 71.324 197.953 71.2735 196.969 71.2337L197.087 71.1125L185.063 71.0524C181.586 71.0137 178.593 71.2235 176.081 71.6847C173.57 72.1481 171.255 72.9117 169.14 73.9759C167.297 74.902 165.476 76.0869 163.676 77.5305L163.746 77.6282C164.493 78.6396 164.98 79.708 165.269 80.9046C165.456 80.8534 165.644 80.8038 165.834 80.7557L165.367 81.3501C165.562 82.3443 165.632 83.4287 165.615 84.639C165.599 85.5241 165.51 86.6465 165.278 87.7809C165.045 90.0553 164.319 92.8815 162.436 94.0805C159.833 93.252 159.218 91.5841 158.551 90.0178L144.401 108.013C144.406 108.497 144.396 108.979 144.37 109.452C144.319 110.226 144.225 110.983 144.073 111.705C143.906 113.371 143.517 114.937 142.756 116.192H161.534C163.703 116.192 165.614 116.102 167.268 115.921C168.921 115.74 170.347 115.49 171.546 115.168C174.42 114.365 177.214 113.018 179.926 111.13C182.639 109.242 185.039 106.952 187.13 104.259C191.181 99.2374 191.607 95.7421 188.413 93.7729C189.73 93.3724 191.109 92.7991 192.55 92.0554C193.99 91.3121 195.389 90.4688 196.743 89.5243C198.099 88.5805 199.383 87.5558 200.595 86.4507C201.519 85.6089 202.357 84.7476 203.112 83.8699L177.926 116.192H191.245L215.585 84.9743L209.415 106.429H212.368L239.612 85.5163L215.653 116.192H237.95L254.712 105.344L251.931 116.192H264.347L270.209 94.4963L304.54 71.1125H292.185ZM175.888 102.693C175.243 103.536 174.412 104.35 173.395 105.133C172.376 105.917 171.32 106.57 170.228 107.092C169.769 107.294 169.326 107.464 168.898 107.604C168.469 107.746 168.033 107.855 167.593 107.936C167.152 108.016 166.653 108.077 166.091 108.116C165.529 108.157 164.887 108.176 164.164 108.176H157.535L165.657 97.7508H172.527C173.933 97.7508 174.934 97.8215 175.531 97.9618C176.126 98.1033 176.599 98.3534 176.948 98.7149C177.71 99.5586 177.356 100.885 175.888 102.693ZM190.319 84.2509C189.633 85.095 188.781 85.9087 187.765 86.691C186.745 87.4753 185.69 88.1291 184.596 88.6508C183.662 89.0932 182.799 89.3836 182.009 89.5243C181.218 89.6653 180.099 89.7345 178.653 89.7345H171.964L179.854 79.6705H190.401L190.428 79.6111C190.791 79.692 191.088 79.912 191.316 80.2727C192.078 81.1176 191.745 82.4427 190.319 84.2509ZM233.166 111.03L263.43 72.1239L257.613 94.4963L233.166 111.03ZM396.212 105.917C392.848 105.937 389.592 105.705 386.447 105.224C385.903 105.103 385.524 104.823 385.313 104.381C385.106 103.938 385.173 103.436 385.524 102.873C387.502 99.4984 389.784 96.1943 392.379 92.9593C394.97 89.7259 397.811 86.6414 400.902 83.7085C401.433 83.1868 402.043 82.7546 402.731 82.4126C403.411 82.0719 404.06 81.9003 404.661 81.9003H424.607L433.025 71.1125H406.389C404.138 71.1125 401.887 71.6159 399.64 72.6194C397.393 73.6242 395.177 74.9607 392.992 76.627C390.808 78.2953 388.701 80.193 386.681 82.3228C384.657 84.4522 382.738 86.632 380.93 88.8607C379.119 91.0905 377.454 93.2907 375.933 95.4608C374.594 97.3737 373.412 99.0885 372.377 100.627L386.443 71.2337H373.425C373.144 71.2337 372.612 71.2939 371.831 71.4142C371.05 71.535 370.024 71.8769 368.751 72.4385C367.475 73.0024 365.974 73.8547 364.24 75.0009C362.507 76.1455 360.526 77.7427 358.3 79.7916L326.425 109.365L327.506 102.211C329.416 101.407 331.317 100.352 333.208 99.0459C335.098 97.741 336.851 96.3647 338.467 94.9187C340.753 92.9097 342.777 90.7595 344.536 88.4699C346.295 86.1795 347.742 83.85 348.876 81.4783C349.703 79.7514 350.042 78.2449 349.894 76.9584C349.747 75.6731 349.27 74.6086 348.47 73.7648C347.668 72.9207 346.599 72.2982 345.264 71.8965C343.93 71.4951 342.499 71.2939 340.973 71.2939H318.253L283.209 116.192H296.226L306.197 103.416H314.513L312.739 116.192H333.229L343.21 106.67H357.01L352.454 116.192H364.929L368.548 108.628C368.345 109.432 368.215 110.206 368.16 110.949C368.052 112.436 368.34 113.701 369.026 114.746C369.709 115.791 370.95 116.413 372.741 116.614C380.696 117.537 389.163 117.357 398.131 116.071L406.662 104.923C403.059 105.565 399.573 105.896 396.212 105.917ZM332.227 87.7462C331.128 88.9928 329.876 90.1175 328.472 91.1214C327.919 91.5232 327.378 91.9151 326.856 92.2961C326.331 92.6787 325.75 93.0101 325.115 93.2907C324.477 93.5732 323.748 93.794 322.927 93.9543C322.108 94.1145 321.134 94.195 320.011 94.195H313.38L324.908 79.4293H333.223C333.785 79.4293 334.234 79.5599 334.572 79.8217C334.909 80.0828 335.138 80.4239 335.258 80.8452C335.378 81.2676 335.402 81.7401 335.333 82.2626C335.264 82.7847 335.113 83.2876 334.883 83.7691C334.209 85.1759 333.324 86.5007 332.227 87.7462ZM361.144 98.5347H351.683L369.249 81.599L361.144 98.5347ZM435.045 71.2939L399.819 116.192H413.442L448.485 71.2939H435.045ZM492.058 92.9593C494.649 89.7259 497.49 86.6414 500.585 83.7085C501.112 83.1868 501.722 82.7546 502.406 82.4126C503.094 82.0719 503.739 81.9003 504.34 81.9003H524.29L532.704 71.1125H506.068C504.821 71.1125 503.5 71.3146 502.101 71.7151C500.706 72.118 499.299 72.6601 497.888 73.3428C496.478 74.0259 495.118 74.8301 493.812 75.7532C492.503 76.6786 491.323 77.6626 490.26 78.7056C488.888 80.0757 487.56 81.4669 486.247 82.8691L495.254 71.2939H482.358L461.943 97.3291L468.055 75.9943C468.239 75.2713 468.255 74.6289 468.102 74.0661C467.95 73.5038 467.672 73.011 467.274 72.5897C466.871 72.1673 466.363 71.8468 465.746 71.6253C465.128 71.4049 464.456 71.2939 463.733 71.2939H450.235L415.248 116.192H428.57L452.908 84.9743L444.299 116.192H460.329L470.545 103.057C469.998 104.044 469.497 105.064 469.064 106.128C468.356 107.855 467.95 109.462 467.841 110.949C467.731 112.436 468.016 113.701 468.704 114.746C469.388 115.791 470.627 116.413 472.421 116.614C480.092 117.537 488.216 117.397 496.79 116.192H499.502L515.876 95.7015H502.437L494.16 105.946C492.753 105.946 491.335 105.968 489.912 106.007C488.486 106.048 487.138 105.968 485.868 105.766C485.305 105.686 484.965 105.324 484.852 104.681C484.734 104.039 484.852 103.436 485.203 102.873C487.181 99.4984 489.463 96.1943 492.058 92.9593Z" fill="white"/>
<path d="M107.834 85.2924C109.575 86.8216 111.105 88.6047 112.423 90.2207C113.782 91.835 114.886 93.4916 115.78 95.1489C116.544 94.8519 117.351 94.5123 118.158 94.2141C119.688 96.1259 121.004 98.2928 121.77 101.226C122.28 103.222 122.535 105.559 122.449 108.406C123.554 108.151 124.276 107.344 124.787 106.196C125.636 104.327 125.51 100.97 125.892 98.2928C128.185 99.908 130.268 101.82 132.265 103.944C134.091 105.857 135.791 107.939 137.406 110.148C138.128 111.125 138.893 112.187 139.616 113.207C140.891 110.233 141.443 106.918 141.06 103.222C140.678 99.9928 139.616 96.4667 137.66 92.5994C136.854 92.6432 135.664 92.558 134.686 92.3024C133.752 92.0902 133.072 91.7088 131.968 91.1984C132.265 93.0672 132.435 94.6819 132.393 96.0407C132.35 97.4014 132.138 98.5046 131.756 99.3562C131.204 99.2706 130.439 98.7606 129.588 97.9536C128.822 97.1885 128.015 95.6581 127.039 94.5123C126.275 93.6186 125.382 93.1516 124.575 92.1754C124.744 94.8519 124.702 97.0607 124.235 98.548C123.893 99.6536 123.3 100.375 122.449 100.418C118.372 93.7049 115.78 90.2633 113.91 88.4785C111.02 85.7156 109.363 85.7156 107.834 85.2924Z" fill="white"/>
<path d="M113.995 111.21C114.844 111.125 115.906 112.995 117.012 115.587C118.413 118.943 119.051 123.405 119.476 126.846C119.816 129.522 120.07 131.521 120.453 131.86C121.261 131.35 121.898 130.755 122.365 130.033C124.065 127.441 124.872 124.211 124.957 120.643C124.999 119.453 124.999 118.263 124.957 117.115C126.572 119.241 128.144 121.139 129.801 123.051C130.268 123.605 130.777 124.51 131.245 124.935C131.204 126.421 131.287 127.824 131.159 129.14C130.522 134.239 128.951 137.936 127.421 140.655C125.51 143.969 123.469 145.924 120.75 146.052C120.707 141.292 119.943 137.256 118.924 133.56C117.69 129.311 115.524 125.87 112.976 122.937C113.398 121.917 113.845 120.579 113.973 119.389C114.355 116.756 114.19 114.056 113.995 111.21Z" fill="white"/>
<path d="M105.79 58.125C108.042 58.0398 110.421 58.2524 112.672 58.5076C115.308 58.8054 117.73 59.231 120.363 59.825C122.36 60.2931 124.443 61.0149 126.61 61.8231C129.753 62.9271 133.109 64.0318 136.17 65.1788C139.144 66.284 141.991 67.0902 144.37 67.1335C144.794 66.8787 145.771 66.0288 145.177 63.4793C141.056 62.7145 138.166 62.1197 136.001 61.6101C133.536 61.0149 131.878 60.8445 130.602 60.4198C128.819 59.825 127.417 59.3158 124.485 58.6354C123.38 58.3806 122.36 57.9554 121.255 57.7006C118.494 57.0644 115.733 56.6389 112.843 56.2567C110.931 55.9593 108.977 55.7467 106.896 55.6185C106.385 55.8741 105.917 56.8937 105.79 58.125Z" fill="white"/>
<path d="M52.5933 7.56297C54.845 7.35116 57.0124 7.47896 59.1371 8.20114C60.4959 8.62515 62.2388 9.6881 63.514 10.6225C66.7415 9.6881 69.2054 9.1359 72.0539 9.3903C73.3701 9.47589 74.6878 9.8577 76.2166 10.4533C78.3421 11.2595 80.2961 13.5124 82.8878 14.4045C82.5482 10.7925 80.2531 8.4989 77.6199 6.67039C74.476 4.46282 70.6084 2.54991 64.3631 3.01612C64.3198 2.2533 64.8297 1.44435 64.9568 0.764378C62.1106 1.06216 59.3899 1.69994 57.1816 3.01612C55.3546 4.08024 53.8255 5.56603 52.5933 7.56297Z" fill="white"/>
<path d="M51.1493 14.8719C51.2337 16.1041 51.4873 17.2929 52.0833 18.5258C52.4655 19.3328 53.0173 20.1398 53.7828 20.9905C55.398 22.8175 58.1171 24.6014 61.9824 26.3432C63.8094 26.428 64.7453 26.428 65.9767 26.2158C66.7415 26.1306 67.5914 25.9188 68.8662 25.664C71.6705 25.0262 77.1517 23.2852 79.9568 22.0937C77.0677 21.7127 74.3478 21.0761 71.9245 20.4805C69.547 19.8854 67.3796 19.3762 65.6793 18.484C64.2779 17.8032 63.1298 17.0396 62.1532 16.1885C61.431 15.5507 60.8362 14.8719 60.3685 14.1919C60.1985 13.979 57.7767 13.129 55.3124 13.215C53.7828 13.2998 52.2533 13.7242 51.1493 14.8719Z" fill="white"/>
<path d="M1.64774 43.8069C10.6985 44.9542 19.6222 45.932 28.545 46.823C42.947 48.2681 57.7349 49.6707 72.2227 51.0717L72.1809 48.7359C72.8601 48.5222 73.5397 48.5221 74.22 48.9911C75.9618 50.2225 78.0439 52.9416 79.9139 55.7033C81.4426 57.9984 83.3126 60.8024 85.0977 63.4375C86.5839 65.6462 87.9872 68.0246 89.8141 70.1497C92.1499 72.9544 94.5724 75.7161 97.1212 78.266C99.2033 80.39 101.328 82.4725 103.368 84.682C104.983 86.4238 106.512 88.2081 108.042 89.9499C109.784 91.9472 111.525 93.9438 113.311 95.8559C110.889 94.9637 108.467 94.1137 106.087 93.392C102.137 92.1176 98.2693 91.0554 94.4868 90.1199C90.3663 89.1421 86.3291 88.4203 82.2934 87.8267C74.5588 86.7212 66.5289 85.9146 58.7103 85.4034C54.038 85.0642 49.4068 84.8086 44.7751 84.512C43.457 84.3838 42.183 84.2142 40.909 84.1279C40.0587 84.0017 39.0383 83.6613 38.2309 83.4069C37.6795 83.1943 37.2122 83.0239 37.0844 82.8961C35.173 81.8773 33.7708 80.9847 32.7513 80.1352C31.7313 79.3282 31.0091 78.6048 30.4988 77.8412C31.9861 78.0097 33.4313 78.1378 34.917 78.266C38.3591 78.5626 41.7574 79.073 45.2421 79.2848C50.8937 79.6682 56.5446 80.2626 62.1532 80.8996C69.3336 81.7081 76.4288 82.6007 83.4826 83.1513L82.8878 80.7303C77.1099 79.964 71.3321 79.3282 65.3823 78.733C59.9859 78.1378 54.4202 77.5853 48.5982 76.9483C42.566 76.2683 36.9566 75.7161 30.7536 75.0373C30.1588 74.9517 28.9692 74.6109 28.4174 74.4417C27.4815 73.8892 26.335 73.507 25.655 72.5292C25.0175 71.637 23.9555 70.4475 23.1478 69.0449C25.0596 69.2997 27.014 69.5549 28.9269 69.8101C31.1365 70.1083 33.3039 70.4056 35.5122 70.6182C40.0587 71.0856 44.6051 71.5526 49.109 72.0192C54.5476 72.6152 59.9859 73.2096 65.3823 73.7192C68.7384 74.0173 72.3513 74.4839 75.707 74.611L74.0493 71.7644C70.2262 71.467 66.3179 71.0856 62.3236 70.6601C57.8201 70.1931 53.2729 69.8101 48.6424 69.3435C41.2916 68.6197 34.28 67.8561 27.1845 67.1762C25.8238 67.0491 24.4229 66.7932 23.0628 66.6658C22.5525 66.4954 22.0429 66.3692 21.5761 66.1992C20.2586 65.5614 19.1965 64.627 18.0926 63.6489C17.2424 62.8419 16.4349 62.0349 15.543 61.2275L51.9981 64.7966L69.0366 66.1992L68.0588 63.7341C63.0028 63.3093 57.9463 62.9271 52.8903 62.5023C41.8012 61.5245 30.7117 60.5042 19.4087 59.3584C18.3896 59.1454 17.3268 58.7636 16.477 58.5076C13.7578 57.5314 11.5483 56.0011 9.76415 53.155C17.1142 54.3437 24.2953 54.9389 31.6461 55.4477L43.6692 56.6803L63.385 58.5498L63.1298 56.0851C53.6129 54.9819 44.4777 54.2593 34.917 53.2816C28.3323 52.6442 21.321 52.0924 14.6932 51.2006C13.4606 51.0717 12.229 50.8602 10.9962 50.3499C6.70511 49.5863 4.49519 46.8664 1.64774 43.8069Z" fill="white"/>
<path d="M117.941 27.151C119.47 27.2795 121.044 27.1076 122.53 27.2366C123.338 29.3601 124.188 31.3997 125.462 31.9948C127.034 32.0382 128.649 32.207 129.457 32.0382C129.541 31.273 129.88 30.5927 129.923 29.8701C131.368 30.1671 133.024 30.2961 134.469 30.5927C134.725 32.207 134.342 33.2704 134.597 34.0774C135.489 34.161 137.996 34.3744 138.677 34.2884C138.931 33.5248 139.187 32.4622 139.398 31.0604C139.823 30.933 140.419 31.0178 141.184 31.273C141.906 31.5274 142.797 31.9526 143.817 32.5478C143.988 32.9304 143.988 33.6944 143.817 34.4592C143.562 35.9883 142.713 37.8153 141.566 38.0701C141.225 38.1556 140.842 38.1138 140.419 37.986C138.507 36.2013 136.254 35.0117 133.748 34.2466C132.472 33.864 131.156 33.567 129.796 33.354C128.224 33.0988 126.482 32.9304 124.697 32.887C122.829 32.8018 120.873 32.8018 118.833 32.887C117.601 31.2301 117.983 29.1901 117.941 27.151Z" fill="white"/>
<path d="M120.279 42.9577C120.237 40.0259 120.108 36.5413 119.556 33.6092C123.89 33.2704 128.479 33.7788 131.878 34.5858C134.852 35.3521 137.317 36.4561 138.847 37.8153C138.166 38.7516 137.359 39.5582 136.722 40.5777C135.873 41.8955 135.404 43.1277 134.979 45.7186C134.682 46.9934 134.427 47.4189 134.258 50.1811C133.45 50.4351 130.178 50.7743 129.498 49.6269C129.371 49.2881 129.414 48.8203 129.626 48.3119C130.433 46.653 131.156 47.4189 132.769 45.4208C130.986 43.3391 127.927 41.6391 126.737 41.3003C125.505 41.4703 121.639 42.5325 120.279 42.9577Z" fill="white"/>
<path d="M99.6703 46.5686C100.734 46.653 101.838 46.909 102.901 46.612C103.835 46.3134 104.728 46.1012 105.321 46.2708C105.28 47.2056 106.13 48.0134 106.809 48.9485C103.75 50.1373 102.476 52.4738 106.469 54.6408C108.806 54.8967 111.228 55.1082 113.479 55.3633C117.346 55.8741 120.916 56.5955 124.443 57.4455C127.543 58.168 129.711 59.231 132.472 59.9102C135.319 60.5906 138.25 61.1424 141.014 61.5675C142.543 61.8231 144.072 62.0763 145.516 62.4171C147.174 61.4816 148.448 60.9727 147.854 57.7433C149.639 58.2106 150.404 59.1876 152.697 59.0594C152.868 57.5315 149.044 52.4738 149.129 51.6665C146.75 51.2424 144.497 51.328 142.203 51.3695C142.16 51.3695 142.033 51.4132 142.16 51.6246C142.331 52.8146 143.137 53.7486 144.243 54.769C144.37 54.8967 144.413 55.3633 144.285 55.6185C144.243 55.7033 143.945 55.7467 143.562 55.7467C141.225 54.8538 139.398 51.8365 137.953 50.3081C135.531 51.0717 133.576 51.582 130.602 51.1154C128.903 50.8603 128.607 50.3929 128.437 49.7133C128.139 48.4811 129.243 46.612 131.581 45.506C130.178 44.2317 128.692 43.2973 126.908 42.3184C125.845 42.3184 122.36 43.4243 120.151 44.0183C119.896 44.2317 121.469 45.3782 121.893 46.2286C122.445 47.376 122.572 48.5651 121.554 49.0755C120.662 49.4155 118.366 48.0133 116.284 45.4627C115.392 46.4424 113.141 46.9934 111.865 47.079C109.825 47.2482 108.424 46.483 108.849 44.8698C108.977 44.2739 109.953 43.8069 110.889 42.8287C110.081 42.3184 108.042 41.8517 105.153 41.3422C103.198 42.8725 101.285 44.6564 99.6703 46.5686ZM107.447 50.9017L108.891 50.7743L109.146 50.7325H109.698L109.953 50.6903H110.974L111.186 50.7325H111.653L111.908 50.7743H112.12L112.29 50.8177L112.843 50.9017L113.353 51.328L113.565 51.5394L113.778 51.7946L113.947 52.0924L114.033 52.432L114.075 52.6016V52.6442L114.415 54.1746L112.716 54.4294L112.418 54.4719H112.162L111.865 54.5138L111.568 54.5571H110.974L110.676 54.5997H109.613L109.358 54.5571L109.061 54.5138L108.594 54.3438L108.467 54.2168L108.382 54.1746L108.084 53.919L107.873 53.6638L107.703 53.4098L107.533 53.112L107.447 52.7716L107.362 52.3902L107.447 50.9017ZM118.027 53.112L119.769 52.2198L119.938 52.135L120.151 52.0498L120.363 51.9646L120.575 51.9224L120.788 51.8365L121.001 51.7946L121.213 51.7528H121.426L121.639 51.7102L121.851 51.6665H123.508L123.72 51.7102H123.933L124.145 51.7528H124.314L124.528 51.7946L124.74 51.8365L124.91 51.8798H125.121L125.292 51.9224L125.505 51.9646L125.675 52.0072L125.886 52.0498L126.27 52.135L126.737 52.432L126.949 52.559L127.204 52.7298L127.417 52.8568L127.629 53.0268L127.842 53.155L128.011 53.2816L128.182 53.4508L128.352 53.5794L128.521 53.7486L128.692 53.919L128.862 54.1319L129.032 54.4719L129.159 54.9389L129.116 55.5775L128.564 56.5119L127.543 56.5955L127.289 56.6389L126.992 56.6803H126.695L126.397 56.7237H126.099L125.802 56.7651H124.103L123.763 56.7237L123.423 56.6803L123.041 56.6389L122.572 56.5955L122.148 56.4677L121.808 56.3423L121.51 56.2133L121.213 56.0851L120.959 55.9593L120.704 55.8311L120.448 55.7033L120.237 55.5775L120.066 55.4063L119.853 55.2789L119.726 55.1081L119.556 54.9819L119.429 54.8115L119.301 54.6842L119.216 54.5571L118.027 53.112ZM134.215 56.8507L135.958 56.4267L136.297 56.3423L136.637 56.2985H136.978L137.317 56.2567L137.656 56.2985H138.294L138.591 56.3423L138.888 56.3837L139.144 56.4267L139.398 56.4677H139.611L139.823 56.5119L139.993 56.5545L140.419 56.6389L141.014 57.0215L141.396 57.4037L141.651 57.7858L141.863 58.168L141.948 58.4658L142.033 58.721L142.075 58.848L142.755 60.378L141.056 60.8876L140.8 60.9298L140.588 60.9728H138.931L138.677 60.9298H138.464L138.25 60.8876H138.039L137.827 60.8446L137.402 60.8024L136.892 60.5472L136.637 60.378L136.297 60.208L135.913 59.9946L135.531 59.698L135.149 59.2728L134.809 58.7636L134.215 56.8507Z" fill="white"/>
<path d="M135.489 79.7952C135.065 79.7526 134.555 79.9218 134.555 81.5803C134.469 82.7261 135.065 83.5769 135.575 83.2795C135.616 81.9617 135.83 80.0078 135.489 79.7952Z" fill="white"/>
<path d="M138.166 84.8942C138.718 83.0239 139.228 81.0703 139.484 78.9448C138.591 79.073 137.613 78.903 136.978 80.2203C136.849 81.3239 136.849 82.8543 136.892 84.3838C137.402 85.1486 137.827 85.1908 138.166 84.8942Z" fill="white"/>
<path d="M139.738 83.7469C139.866 82.1321 140.12 80.4756 140.545 79.9218C140.971 79.2848 141.481 78.9874 142.118 78.8182C142.203 80.3052 142.245 81.7491 141.778 83.1091C141.311 83.7891 140.545 83.8317 139.738 83.7469Z" fill="white"/>
<path d="M143.435 81.5377C143.478 80.9848 143.435 80.4755 143.521 79.964C143.605 79.6256 143.734 79.3282 143.945 79.1148C143.988 78.8604 144.752 78.903 145.219 78.9448C145.391 79.4974 145.135 80.2204 145.007 81.0277C144.879 81.4947 143.901 81.5377 143.435 81.5377Z" fill="white"/>
<path d="M131.623 71.213C131.368 71.3826 131.751 72.0192 131.963 72.573C132.133 72.9106 132.558 73.0814 132.898 72.997C132.982 72.7422 133.152 72.274 132.727 71.8918C132.218 71.4252 131.836 70.9567 131.623 71.213Z" fill="white"/>
<path d="M79.9975 27.6613C83.6522 25.834 87.265 24.5178 91.0029 23.7108C95.2528 22.8175 100.309 22.4341 106.427 22.3497C102.434 23.7519 98.0567 24.9844 93.5102 25.8766C89.3897 26.6844 84.5443 27.4914 79.9975 27.6613Z" fill="white"/>
<path d="M109.146 15.8919C109.953 15.0419 112.758 15.0841 114.882 14.9563C117.475 14.7871 120.066 15.0841 122.402 15.7207C124.145 16.1885 126.056 16.9959 127.927 18.0581C129.966 19.2058 131.921 20.6502 133.365 22.1363C135.447 24.3045 136.722 27.1936 138.336 30.8471C138.295 31.0604 138.549 32.8452 138.25 33.7374C137.485 33.9073 136.001 33.7788 135.362 33.567C135.149 32.6318 135.489 31.9948 135.319 30.2105C134.003 29.8283 132.303 29.9545 130.986 29.5309C129.626 25.451 127.417 22.1363 124.357 20.098C120.448 17.4207 114.926 16.2741 109.146 15.8919Z" fill="white"/>
<path d="M68.9514 49.9251L71.4575 49.9673L71.5017 47.5463C72.8179 47.2056 74.22 47.4608 75.6222 49.4155C78.2991 52.3902 80.8056 55.5333 83.0156 58.7636C85.3095 62.1619 87.3487 65.6462 89.9841 68.9175C94.4024 74.3995 99.5433 79.3282 104.472 84.4264C105.842 85.8434 107.09 87.3796 108.39 88.8615C109.551 90.1847 110.835 91.6592 112.062 92.9969C112.533 93.5104 112.892 94.3908 113.654 94.4955C113.74 93.4943 112.793 91.9343 112.239 91.1602C111.426 90.0222 110.349 89.0948 109.486 87.9955C109.485 87.9936 93.7647 70.5315 93.7647 70.5315C91.8545 68.1957 89.9415 65.9862 88.2416 63.5219C86.4565 61.0149 84.8855 58.2106 83.1856 55.6185C81.4426 52.9416 79.5313 50.8602 77.4495 48.4377C75.8774 46.612 72.9449 44.7416 69.4622 44.0621C67.931 43.8913 66.5727 43.8487 64.9567 43.8913C67.0811 45.8882 68.7384 47.8433 68.9514 49.9251Z" fill="#ED1C24"/>
<path d="M54.292 12.4065L53.9536 12.492C51.4041 12.6198 50.256 14.2338 49.7042 16.1451C48.8964 18.738 49.4912 22.0101 52.2951 24.2201C57.4797 28.298 65.1271 28.0432 70.1836 26.174C73.796 24.8144 78.3835 23.4549 81.6978 21.9679C85.4373 20.268 89.1349 19.2902 92.8721 18.441C98.0567 17.2511 103.326 16.6137 108.934 16.8685C113.013 17.0803 117.559 17.8463 121.723 19.9272C123.38 20.7346 124.485 21.7542 126.184 23.0289C127.842 24.2607 128.903 26.1306 129.414 28.2139C129.626 29.0631 128.903 29.8283 128.776 31.2301C128.266 31.2301 126.908 31.273 126.397 31.1038C124.528 30.5075 125.292 28.3831 123.933 27.4914C123.848 25.7074 122.191 23.7109 119.386 22.6471C115.308 21.1598 109.571 21.1598 108.296 21.1598C101.838 21.0324 91.6825 22.2657 88.3264 23.1145C83.3126 24.3467 78.4257 27.9588 73.2849 29.2749C68.3136 30.5501 63.0028 32.207 57.4797 32.207C54.7176 32.1644 52.3803 32.4196 49.916 31.8241C43.5848 30.3387 38.9969 26.5566 37.3814 19.2058C36.617 15.8489 37.7655 12.7046 38.8269 10.8347C41.0794 7.0108 45.9233 6.07603 50.426 6.24603C51.3189 6.28862 48.0894 8.41335 48.0894 9.30553C48.0894 9.64552 48.3442 9.98511 49.2786 9.47591C51.6585 8.11517 54.7176 8.03078 57.5215 8.79634C60.7936 9.72994 63.8094 11.8128 65.8915 14.1072C67.0811 15.4241 68.1014 16.6985 68.3136 18.1433C66.8696 16.9959 65.9767 16.0619 65.0427 15.2545C63.682 14.1494 62.281 13.3416 59.2641 12.7046C57.9037 12.4065 56.248 12.492 54.292 12.4065Z" fill="#ED1C24"/>
<path d="M66.9584 42.5473C72.6522 41.6552 77.3253 43.9487 82.2125 47.9856C83.4017 48.9626 84.719 50.3651 85.9516 52.0228C87.3108 53.8498 88.5859 55.9315 89.9467 57.887C91.3898 59.968 92.8776 61.795 94.2793 63.2389C94.7041 63.6645 95.0023 64.1749 95.4275 64.5149C96.8289 65.6188 97.8051 65.9584 98.8254 65.3637C99.378 66.0862 100.101 66.5962 100.908 66.9788C101.842 67.4036 102.906 67.6162 104.052 67.6584C103.032 68.5087 102.055 69.4431 101.121 70.4201C100.142 71.3975 99.2506 72.5007 98.3576 73.693C98.6859 74.0857 99.0654 74.4038 99.4804 74.6527C100.14 75.0482 100.891 75.2706 101.673 75.3491C102.734 75.4343 103.882 75.221 104.859 74.754C106.22 74.1596 107.664 73.31 108.896 72.077L109.575 72.6726C109.66 73.564 109.873 74.287 109.788 75.0514C109.533 77.9416 107.918 79.853 105.836 81.2552C106.091 81.807 106.517 82.1891 107.153 82.4021C107.748 82.5721 108.472 82.5721 109.321 82.4021C111.53 81.8921 114.123 81.1715 115.227 79.6838C116.034 78.6208 116.459 77.2605 116.501 75.6032C117.181 76.4965 117.904 77.3465 117.99 78.3234C118.202 79.9808 116.926 82.0195 112.507 84.8665L113.146 84.9528C115.438 85.9712 120.75 86.9494 122.959 81.9355L123.554 82.1891C124.447 86.9056 127.464 89.8385 130.055 90.1363C130.098 91.4095 130.565 93.1516 130.607 94.426L129.928 97.0185C127.804 93.8742 125.849 91.7502 123.639 90.1363L123.044 90.3907C123.086 92.472 123.044 94.6819 122.577 97.5281C121.813 96.2963 121.048 94.9793 120.156 93.6616C116.672 88.6048 112.337 83.7199 106.602 84.0169C106.602 83.9751 106.56 83.9321 106.517 83.8903C104.774 81.7225 103.074 79.9808 101.545 78.2816C100.058 76.5801 98.7836 74.9232 97.4233 73.5218C94.1516 69.9101 91.3898 66.9362 88.7563 63.1545C87.7371 61.7105 86.6312 60.3088 85.7816 58.9066C84.6764 57.1633 83.7843 55.4649 82.7647 53.9768C81.4477 51.9802 79.7056 49.9829 77.9638 48.1134C76.6461 46.7116 75.4573 45.3098 73.757 44.4173C71.887 43.4407 68.9131 43.0999 67.0014 42.9291C67.0014 42.7595 66.9584 42.6739 66.9584 42.5473Z" fill="#ED1C24"/>
<path d="M74.6065 102.712C76.0517 104.583 77.4112 106.154 79.2378 107.046C81.0229 107.896 83.2329 108.065 85.4838 107.853C89.4781 107.513 94.2367 105.516 99.7598 101.311C103.245 101.098 106.388 101.608 109.023 103.265C111.105 104.538 112.847 106.494 114.164 109.341C116.162 111.634 117.606 114.015 118.626 116.479C119.943 119.623 120.538 122.937 120.707 126.337C121.387 125.018 121.982 123.533 122.449 121.917C123.086 119.877 123.554 117.626 123.938 115.288C125.382 116.224 126.994 117.796 128.823 120.006C129.542 120.904 130.284 121.88 131.019 122.883C132.186 124.476 133.335 126.136 134.347 127.653C134.692 126.739 135.051 125.866 135.379 125.007C135.858 123.751 136.271 122.524 136.472 121.237C136.897 118.433 136.515 115.544 135.835 112.952C134.899 109.128 132.648 105.516 128.907 102.16C128.738 106.494 127.761 109.723 125.849 111.508C124.447 112.825 122.492 113.334 119.985 112.995C120.92 109.638 121.473 106.324 121.004 103.349C120.707 101.311 119.9 99.3562 118.456 97.6547C116.118 99.1862 113.357 103.095 110.043 102.585C108.386 102.287 106.474 101.693 104.264 100.63C104.689 99.8228 105.114 99.0151 105.539 98.1655C104.859 98.3355 104.18 98.0377 103.499 97.5281C102.607 96.8493 101.927 95.7863 100.95 94.682C99.9724 93.578 98.7406 92.4291 97.5506 91.9195C96.2763 91.4095 94.8315 91.0273 93.1753 90.9859C92.7502 92.6846 91.6876 93.9598 90.1573 94.852C87.9485 96.1689 84.8034 96.8059 81.2773 97.1033C82.8081 98.7607 84.3368 100.418 85.8664 102.032C85.1876 102.585 84.3368 103.095 83.5299 103.011C80.9803 102.712 77.1979 102.542 74.6065 102.712Z" fill="#ED1C24"/>
<path d="M140.338 74.4132C141.401 74.3714 142.25 74.4132 142.929 74.4132C144.417 74.4574 145.097 74.1596 145.267 73.2662C145.394 72.46 144.587 71.9497 143.313 71.5667C142.717 71.3975 142.123 71.1853 141.357 70.9309C141.357 70.6327 141.357 70.8457 141.357 70.5897C142.887 70.5475 144.885 70.4627 146.371 70.7187C148.412 71.1001 149.813 72.2478 149.601 73.9052C149.388 75.8584 147.561 76.2835 145.479 76.1569C143.95 76.0725 141.825 75.5618 140.338 75.1784C140.338 74.9232 140.338 74.6692 140.338 74.4132ZM135.322 78.2817C135.835 77.3047 136.003 76.2406 135.919 75.1784C135.748 72.63 133.921 70.0375 132.648 68.8062C132.477 68.5088 131.713 68.8913 130.947 68.9328C130.142 68.9758 129.333 68.8487 129.504 67.8284C129.673 66.7662 131.076 66.894 131.756 67.064C132.987 67.361 133.752 68.7206 134.686 70.1223C135.451 71.2697 136.343 72.5874 136.598 73.6492C136.854 74.754 136.854 77.1753 136.217 77.8557C141.486 76.8365 146.965 77.5161 152.277 80.1082C153.594 80.7456 154.869 81.5096 156.186 82.3592C156.484 82.5721 156.442 82.8691 156.78 83.1243C156.442 82.9962 156.313 83.1243 155.973 82.9961C154.699 82.4447 153.339 81.8922 151.979 81.383C150.535 80.83 149.09 80.363 147.689 80.0648C146.711 80.9152 146.031 81.383 145.054 82.0196C144.204 82.5721 142.845 82.9555 141.994 83.4221C139.871 84.7395 139.232 86.1842 136.897 86.4386C136.301 86.5246 135.835 86.5668 135.409 86.4386C134.815 86.2694 134.347 85.8872 133.836 85.5046C132.052 84.1447 131.159 81.553 132.35 79.6838C132.817 78.9597 133.795 78.5368 135.322 78.2817ZM128.525 69.4431C129.376 69.1454 130.947 69.1879 131.926 69.6983C132.775 70.0805 133.284 70.7601 134.006 71.8227C134.432 72.3326 135.877 76.1987 134.602 77.0065C132.648 78.2391 128.653 75.6465 127.25 72.0349C126.954 71.2279 126.954 70.2509 127.039 69.2739C126.869 69.1031 126.698 68.9328 126.572 68.7636C126.018 68.8487 125.933 69.2739 125.51 69.5283C124.872 70.8457 126.572 73.3944 128.186 75.3066C129.164 76.4965 130.522 77.6431 132.435 78.7905C132.393 78.876 132.308 79.0034 132.265 79.0875C130.48 78.6635 128.865 77.7713 127.336 76.2835C125.976 75.0514 124.744 73.3514 123.511 71.2279C122.704 72.1212 121.855 72.6726 121.091 72.5874C121.685 69.6983 121.685 67.8714 121.048 67.064C117.733 68.1266 116.373 69.7839 111.02 69.6983C110.723 69.5283 110.427 69.2739 110.127 68.9757C111.87 67.6162 113.782 66.3848 114.462 64.8967C112.252 66.171 109.321 67.9984 104.901 67.9566C103.117 69.6983 101.035 71.6949 100.609 72.8418C102.607 72.5445 104.01 72.46 109.618 70.3771C111.063 72.5874 111.87 76.4539 108.769 80.4048C113.654 81.2126 115.906 75.9861 116.204 73.1826C119.773 74.7106 119.858 82.5303 115.269 84.0169C118.964 85.0791 121.813 82.0622 123.639 78.1953C124.235 78.2817 123.938 79.9382 124.192 81.1278C124.575 82.8691 125.211 84.3147 126.061 85.5468C128.101 88.6048 131.204 90.6447 134.771 91.1551C136.938 91.4517 139.361 91.1985 142.08 90.3055C143.864 89.7521 145.607 88.9034 147.391 87.4586C149.516 85.7157 151.726 84.0603 155.039 83.0399C155.676 83.0825 156.993 83.8051 157.886 85.4624C158.311 86.2694 158.778 86.736 159.075 87.332C160.733 90.3907 160.648 90.6029 161.879 90.9859C163.07 88.8178 163.834 86.8216 163.962 84.9947C164.429 77.8135 159.5 72.9692 152.489 69.6127C150.96 68.8913 149.43 68.4654 147.943 68.2536C145.138 67.7858 142.42 67.701 139.828 67.2766C137.406 66.894 135.154 65.9585 132.945 65.0674C131.33 64.4293 129.673 63.9619 128.229 63.4945C128.016 64.4723 127.591 65.4493 127.591 66.2996C127.633 67.5302 128.101 69.1454 128.525 69.4431Z" fill="#ED1C24"/>
<path d="M136.001 57.8703C137.274 57.4455 139.228 57.8703 139.866 57.9555C140.588 58.3377 140.674 59.1876 140.842 59.4854C140.291 59.655 138.718 59.5698 137.827 59.442C137.104 59.0184 136.17 58.7636 136.001 57.8703Z" fill="#ED1C24"/>
<path d="M120.237 53.5793C121.766 52.7298 123.89 53.069 125.76 53.4508C127.034 54.2593 127.968 54.9389 127.714 55.1949C126.184 55.3215 124.74 55.5333 122.871 55.1949C121.129 54.6841 120.662 54.1319 120.237 53.5793Z" fill="#ED1C24"/>
<path d="M108.806 52.1776C110.038 52.0498 111.483 52.0924 112.248 52.2198C112.801 52.6442 112.672 52.7298 112.716 52.9834C111.611 53.155 109.401 53.325 109.274 53.069C109.018 52.9416 108.721 52.5164 108.806 52.1776Z" fill="#ED1C24"/>
<path d="M107.064 99.8076C107.617 98.6176 108.891 97.2166 108.849 95.5155C110.379 95.9411 112.035 96.4085 114.373 97.258C114.799 99.1694 107.533 101.508 107.064 99.8076Z" fill="#ED1C24"/>
<path d="M107.064 99.8076C107.617 98.6176 108.891 97.2166 108.849 95.5155C110.379 95.9411 112.035 96.4085 114.373 97.258C114.799 99.1694 107.533 101.508 107.064 99.8076Z" stroke="#231F20" stroke-width="0.71561" stroke-miterlimit="22.9256"/>
<path d="M11.7189 46.356L12.7388 48.6922L67.7193 54.0456L66.1901 51.1995L11.7189 46.356Z" fill="#ED1C24"/>
<path d="M99.9386 64.6825C99.64 66.9776 101.256 68.8046 102.998 69.9086C103.423 70.2063 103.805 70.4619 104.315 70.6737C104.741 70.8433 105.25 71.0997 105.717 71.1837C106.949 71.4389 108.352 71.3959 109.923 71.0141C110.731 70.8011 111.623 70.4619 112.558 70.1219C113.279 69.9086 114.045 69.6119 114.811 69.1868C115.617 68.7198 116.552 68.1672 117.486 67.5716C117.741 67.7854 117.825 67.7002 118.082 67.9546C117.657 68.9316 117.189 69.9512 116.637 70.7585C116.084 71.5663 115.448 72.2885 114.767 72.9262C115.308 72.8446 115.844 72.7496 116.371 72.6398C117.207 72.4651 118.021 72.2513 118.804 71.9911C120.332 71.4389 121.693 70.7585 122.926 69.9512C123.137 69.9512 123.393 69.9512 123.648 69.9512C123.987 70.5897 124.242 71.3123 124.412 72.0341C124.582 72.7551 124.667 73.4788 124.667 74.2858C127.938 72.0341 128.915 69.7397 128.915 67.402C127.684 67.0202 126.537 66.7654 125.474 66.5098C124.71 66.3399 124.03 66.0425 123.351 65.7881C122.629 65.4907 121.948 65.1929 121.183 65.0233C120.291 64.7681 119.355 64.5973 118.464 64.4285C116.849 64.1717 115.233 63.9181 113.662 63.7911C111.623 63.6633 109.073 63.4089 106.991 63.4089C106.566 63.9181 106.099 64.6825 104.442 65.0651C102.573 65.4063 100.83 65.4907 99.9386 64.6825Z" fill="#ED1C24"/>
</svg>
